<svg width="588" height="532" viewBox="0 0 588 532" fill="none" xmlns="http://www.w3.org/2000/svg">
<path fill-rule="evenodd" clip-rule="evenodd" d="M580.986 502.401C575.092 489.423 561.54 483.137 552.72 489.423C543.914 495.695 531.664 496.661 520.016 493.847C508.368 491.019 506.156 464.363 508.676 433.619C511.196 402.875 515.368 391.045 517.986 379.887C520.968 368.673 534.086 369.569 535.654 378.347C537.222 387.125 546.35 387.125 559.58 371.137C572.796 355.135 570.92 308.529 555.492 270.575C540.078 232.621 561.554 236.317 567.7 240.083C573.832 243.849 577.612 238.207 576.198 216.563C574.784 194.919 554.946 177.979 538.902 167.633C522.844 157.273 503.314 145.835 503.79 118.073C504.252 90.3251 541.926 91.2071 547.12 91.6691C552.314 92.1451 562.072 89.9471 556.402 61.0931C550.746 32.2391 530.124 26.7511 517.216 27.5351C504.406 28.3051 495.6 35.4311 477.344 28.5291C459.088 21.6271 446.936 24.3291 429.94 28.0951C412.944 31.8611 390.684 42.3471 362.95 49.8371C348.334 53.7991 343.406 54.8631 327.474 55.1151C317.716 55.2691 313.628 67.0431 326.69 81.6311C337.036 93.4611 360.486 96.6111 374.57 94.6371C383.67 93.3631 385.756 99.3831 384.93 108.231C383.838 119.823 383.348 130.841 384.734 141.229C386.204 152.233 388.038 171.007 382.83 183.131C380.268 189.109 372.778 195.591 364.756 195.115C354.382 194.499 345.982 182.263 338.772 167.745C323.638 137.225 305.858 130.757 239.498 102.813C179.816 77.6971 147.504 38.5111 127.442 13.2831C109.648 -9.08886 91.8262 -0.618856 93.5062 19.5691C94.8222 35.2071 104.384 85.7611 128.632 116.141C158.452 162.551 204.484 183.579 257.502 187.709C271.362 188.801 280.028 191.531 281.204 197.859C282.94 211.369 269.766 220.721 245.14 217.949C220.458 215.177 210.098 219.559 214.984 233.531C230.58 266.431 266.574 267.859 281.554 269.217C286.594 270.127 304.444 269.189 313.978 271.835C325.08 274.901 327.474 290.315 311.374 298.631C282.772 312.645 270.298 324.209 255.808 350.613C244.888 371.389 235.438 406.137 245.266 456.187C254.688 504.823 183.946 506.377 153.398 499.461C140.224 496.689 126.406 471.699 158.662 450.783C184.786 433.843 190.05 423.427 188.888 401.979C187.516 376.975 173.768 375.197 173.81 353.497V350.291C173.852 347.407 173.838 343.837 173.81 341.219V332.091V301.711C173.81 297.329 170.254 293.759 165.858 293.759H141.414C137.004 293.759 133.434 290.203 133.434 285.807V254.503C133.434 250.121 129.878 246.551 125.482 246.551H101.038C96.6422 246.551 93.0722 242.995 93.0722 238.599V210.585C93.0722 206.203 89.5022 202.647 85.1062 202.647H55.3422C50.9322 202.647 47.3622 199.077 47.3622 194.681V165.057C47.3622 160.661 43.8062 157.105 39.4102 157.105H7.96624C3.57024 157.105 0.000244141 160.661 0.000244141 165.057V196.361C0.000244141 200.757 3.55624 204.313 7.95224 204.313H37.7302C42.1262 204.313 45.6962 207.869 45.6962 212.265V246.551V293.759V323.957C45.6962 328.339 49.2662 331.909 53.6622 331.909H85.0922C89.5022 331.909 93.0722 335.465 93.0722 339.861V376.359C93.0722 380.741 96.6282 384.297 101.024 384.297H133.434H145.166C158.662 383.345 161 401.461 160.86 407.929C160.552 422.671 143.906 427.417 135.996 433.535C114.982 449.789 98.6722 466.309 108.22 498.089C108.29 498.299 108.374 498.523 108.458 498.733C125.818 535.609 173.544 531.801 203.672 531.801H393.428C404.138 531.801 415.156 534.307 412.636 521.763C410.116 509.219 404.824 492.181 389.396 492.181C373.982 492.181 376.474 500.749 361.368 496.353C346.262 491.957 346.262 471.573 368.928 436.125C392.364 405.815 432.502 408.209 456.75 429.545C480.984 450.867 473.844 488.177 468.706 509.527C465.78 524.563 472.794 531.997 480.984 531.801H577.304C592.41 531.801 589.484 521.847 580.986 502.401" fill="white"/>
</svg>
